{
    "asset" : {
        "generator" : "Khronos glTF Blender I/O v3.3.32",
        "version" : "2.0"
    },
    "scene" : 0,
    "scenes" : [
        {
            "name" : "Scene",
            "nodes" : [
                2
            ]
        }
    ],
    "nodes" : [
        {
            "name" : "joint1",
            "rotation" : [
                -0.7071068286895752,
                0,
                0,
                0.7071068286895752
            ],
            "translation" : [
                0.010299935936927795,
                0.004965454339981079,
                1.1102230246251565e-16
            ]
        },
        {
            "mesh" : 0,
            "name" : "flecha2",
            "skin" : 0
        },
        {
            "children" : [
                1,
                0
            ],
            "name" : "Armature",
            "rotation" : [
                0.7071068286895752,
                0,
                0,
                0.7071067094802856
            ],
            "scale" : [
                0.009999999776482582,
                0.009999999776482582,
                0.009999999776482582
            ]
        }
    ],
    "animations" : [
        {
            "channels" : [
                {
                    "sampler" : 0,
                    "target" : {
                        "node" : 0,
                        "path" : "translation"
                    }
                },
                {
                    "sampler" : 1,
                    "target" : {
                        "node" : 0,
                        "path" : "rotation"
                    }
                },
                {
                    "sampler" : 2,
                    "target" : {
                        "node" : 0,
                        "path" : "scale"
                    }
                }
            ],
            "name" : "rotation",
            "samplers" : [
                {
                    "input" : 7,
                    "interpolation" : "LINEAR",
                    "output" : 8
                },
                {
                    "input" : 7,
                    "interpolation" : "LINEAR",
                    "output" : 9
                },
                {
                    "input" : 7,
                    "interpolation" : "LINEAR",
                    "output" : 10
                }
            ]
        }
    ],
    "materials" : [
        {
            "doubleSided" : true,
            "emissiveFactor" : [
                0.004307610914111137,
                0.2702145576477051,
                0.5925837755203247
            ],
            "name" : "lambert4",
            "pbrMetallicRoughness" : {
                "baseColorFactor" : [
                    0,
                    0.17307496070861816,
                    0.5,
                    1
                ],
                "metallicFactor" : 0,
                "roughnessFactor" : 0.5527864098548889
            }
        }
    ],
    "meshes" : [
        {
            "name" : "Mesh",
            "primitives" : [
                {
                    "attributes" : {
                        "POSITION" : 0,
                        "NORMAL" : 1,
                        "TEXCOORD_0" : 2,
                        "JOINTS_0" : 3,
                        "WEIGHTS_0" : 4
                    },
                    "indices" : 5,
                    "material" : 0
                }
            ]
        }
    ],
    "skins" : [
        {
            "inverseBindMatrices" : 6,
            "joints" : [
                0
            ],
            "name" : "Armature"
        }
    ],
    "accessors" : [
        {
            "bufferView" : 0,
            "componentType" : 5126,
            "count" : 196,
            "max" : [
                1.6812711954116821,
                0.012104939669370651,
                1.4109082221984863
            ],
            "min" : [
                0.09816278517246246,
                -0.004097008612006903,
                0.07608933746814728
            ],
            "type" : "VEC3"
        },
        {
            "bufferView" : 1,
            "componentType" : 5126,
            "count" : 196,
            "type" : "VEC3"
        },
        {
            "bufferView" : 2,
            "componentType" : 5126,
            "count" : 196,
            "type" : "VEC2"
        },
        {
            "bufferView" : 3,
            "componentType" : 5121,
            "count" : 196,
            "type" : "VEC4"
        },
        {
            "bufferView" : 4,
            "componentType" : 5126,
            "count" : 196,
            "type" : "VEC4"
        },
        {
            "bufferView" : 5,
            "componentType" : 5123,
            "count" : 300,
            "type" : "SCALAR"
        },
        {
            "bufferView" : 6,
            "componentType" : 5126,
            "count" : 1,
            "type" : "MAT4"
        },
        {
            "bufferView" : 7,
            "componentType" : 5126,
            "count" : 61,
            "max" : [
                2.5416666666666665
            ],
            "min" : [
                0.041666666666666664
            ],
            "type" : "SCALAR"
        },
        {
            "bufferView" : 8,
            "componentType" : 5126,
            "count" : 61,
            "type" : "VEC3"
        },
        {
            "bufferView" : 9,
            "componentType" : 5126,
            "count" : 61,
            "type" : "VEC4"
        },
        {
            "bufferView" : 10,
            "componentType" : 5126,
            "count" : 61,
            "type" : "VEC3"
        }
    ],
    "bufferViews" : [
        {
            "buffer" : 0,
            "byteLength" : 2352,
            "byteOffset" : 0,
            "target" : 34962
        },
        {
            "buffer" : 0,
            "byteLength" : 2352,
            "byteOffset" : 2352,
            "target" : 34962
        },
        {
            "buffer" : 0,
            "byteLength" : 1568,
            "byteOffset" : 4704,
            "target" : 34962
        },
        {
            "buffer" : 0,
            "byteLength" : 784,
            "byteOffset" : 6272,
            "target" : 34962
        },
        {
            "buffer" : 0,
            "byteLength" : 3136,
            "byteOffset" : 7056,
            "target" : 34962
        },
        {
            "buffer" : 0,
            "byteLength" : 600,
            "byteOffset" : 10192,
            "target" : 34963
        },
        {
            "buffer" : 0,
            "byteLength" : 64,
            "byteOffset" : 10792
        },
        {
            "buffer" : 0,
            "byteLength" : 244,
            "byteOffset" : 10856
        },
        {
            "buffer" : 0,
            "byteLength" : 732,
            "byteOffset" : 11100
        },
        {
            "buffer" : 0,
            "byteLength" : 976,
            "byteOffset" : 11832
        },
        {
            "buffer" : 0,
            "byteLength" : 732,
            "byteOffset" : 12808
        }
    ],
    "buffers" : [
        {
            "byteLength" : 13540,
            "uri" : "data:application/octet-stream;base64,"
        }
    ]
}
